:version 1.10
:name ASF
:units
  mass 1
  length 1
  angle deg
:documentation
  ASF file generated by Kaydara
:root
  axis xyz
  order  tx ty tz rx ry rz
  position 0 0 0
  orientation 0 0 0
:bonedata
  begin
    id 1
    name SpineDummy
    direction 0.999998 -0.00179978 1.38929e-006
    length 3.60008
    axis 0 0 0 xyz
  end
  begin
    id 2
    name Spine
    direction 0.964365 0.262802 0.0305839
    length 8.13928
    axis 1.33928 -1.75354 15.2838 xyz
    dof rx ry rz
  end
  begin
    id 3
    name Spine1
    direction 0.811168 0.572065 0.12144
    length 7.14954
    axis 2.2224 -6.9761 35.2157 xyz
    dof rx ry rz
  end
  begin
    id 4
    name Neck
    direction 0 0 0
    length 0
    axis 2.2224 -6.9761 35.2157 xyz
    dof rx ry rz
  end
  begin
    id 5
    name HeadDummy
    direction 0.810939 0.572387 0.121455
    length 3.55534
    axis 2.2224 -6.9761 35.2157 xyz
  end
  begin
    id 6
    name Head
    direction 0.998226 -0.000232542 0.0595419
    length 7.35666
    axis -3.03688 -3.41352 -0.0133467 xyz
    dof rx ry rz
  end
  begin
    id 7
    name R_ClavicleDummy
    direction 0.531669 -0.194489 -0.824319
    length 2.49392
    axis 2.2224 -6.9761 35.2157 xyz
  end
  begin
    id 8
    name R_Clavicle
    direction -0.155119 0.0480802 -0.986725
    length 4.485
    axis -54.2764 80.6538 162.779 xyz
    dof rx ry rz
  end
  begin
    id 9
    name R_UpperArm
    direction -0.955567 0.200068 -0.216484
    length 10.1122
    axis -72.9943 12.5026 168.175 xyz
    dof rx ry rz
  end
  begin
    id 10
    name R_Forearm
    direction -0.61433 0.385743 0.688332
    length 9.39148
    axis -117.015 -43.4982 147.875 xyz
    dof rx ry rz
  end
  begin
    id 11
    name R_Hand
    direction -0.699429 0.0170333 0.714499
    length 3.66324
    axis -45.0303 -36.7097 175.478 xyz
    dof rx ry rz
  end
  begin
    id 12
    name L_ClavicleDummy
    direction 0.40287 -0.36502 0.839319
    length 2.49392
    axis 2.2224 -6.9761 35.2157 xyz
  end
  begin
    id 13
    name L_Clavicle
    direction -0.231271 -0.0726419 0.970174
    length 4.485
    axis 18.4357 -75.9711 -162.563 xyz
    dof rx ry rz
  end
  begin
    id 14
    name L_UpperArm
    direction -0.917494 0.144359 0.370629
    length 10.1122
    axis 56.0417 -21.7544 171.058 xyz
    dof rx ry rz
  end
  begin
    id 15
    name L_Forearm
    direction -0.496786 0.615074 -0.612281
    length 9.39148
    axis 89.8094 37.7546 128.927 xyz
    dof rx ry rz
  end
  begin
    id 16
    name L_Hand
    direction -0.409932 0.64962 -0.640274
    length 3.66324
    axis -0.424369 32.133 128.52 xyz
    dof rx ry rz
  end
  begin
    id 17
    name L_ThighDummy
    direction -1.84081e-006 1.87549e-006 1
    length 3.13049
    axis 0 0 0 xyz
  end
  begin
    id 18
    name L_Thigh
    direction -0.947739 0.307978 0.083308
    length 17.9961
    axis 173.219 -4.77873 161.998 xyz
    dof rx ry rz
  end
  begin
    id 19
    name L_Calf
    direction -0.728814 -0.684427 0.0197583
    length 13.3367
    axis 167.331 -1.13214 -136.799 xyz
    dof rx ry rz
  end
  begin
    id 20
    name L_Foot
    direction -0.9028 0.418719 0.0981191
    length 5.8674
    axis 163.436 11.5135 -155.37 xyz
    dof rx ry rz
  end
  begin
    id 21
    name L_Toe0
    direction -0.35341 0.886259 0.299411
    length 4.75286
    axis 169.316 -17.4222 111.74 xyz
    dof rx ry rz
  end
  begin
    id 22
    name R_ThighDummy
    direction 9.32778e-007 -8.82053e-007 -1
    length 3.13049
    axis 0 0 0 xyz
  end
  begin
    id 23
    name R_Thigh
    direction -0.925064 0.37528 -0.0585023
    length 17.9961
    axis -178.698 3.35385 157.919 xyz
    dof rx ry rz
  end
  begin
    id 24
    name R_Calf
    direction -0.68969 -0.718776 -0.0876886
    length 13.3367
    axis -160.504 5.03065 -133.817 xyz
    dof rx ry rz
  end
  begin
    id 25
    name R_Foot
    direction -0.857405 0.418858 -0.299022
    length 5.8674
    axis -161.328 4.38911 -154.413 xyz
    dof rx ry rz
  end
  begin
    id 26
    name R_Toe0
    direction -0.100745 0.952789 -0.286433
    length 4.75286
    axis 171.683 16.6445 96.0359 xyz
    dof rx ry rz
  end
:hierarchy
  begin
    root SpineDummy L_ThighDummy R_ThighDummy
    SpineDummy Spine
    Spine Spine1
    Spine1 Neck
    Neck HeadDummy R_ClavicleDummy L_ClavicleDummy
    HeadDummy Head
    R_ClavicleDummy R_Clavicle
    R_Clavicle R_UpperArm
    R_UpperArm R_Forearm
    R_Forearm R_Hand
    L_ClavicleDummy L_Clavicle
    L_Clavicle L_UpperArm
    L_UpperArm L_Forearm
    L_Forearm L_Hand
    L_ThighDummy L_Thigh
    L_Thigh L_Calf
    L_Calf L_Foot
    L_Foot L_Toe0
    R_ThighDummy R_Thigh
    R_Thigh R_Calf
    R_Calf R_Foot
    R_Foot R_Toe0
  end

:SAMPLES-PER-SECOND 30
:FULLY-SPECIFIED
:DEGREES
170
root  -3.12787 23.4196 -0.46442 -91.7379 22.5748 80.3882
Spine  -1.0796 4.10596 24.1833
Spine1  -6.86664 26.582 -14.8008
Neck  3.97569e-016 0 -2.38542e-015
Head  25.2359 -25.0412 17.1411
R_Clavicle  1.56415 -5.16738 9.64861
R_UpperArm  53.8606 -4.69005 63.1614
R_Forearm  8.93991 -42.0664 41.2386
R_Hand  -1.20722 5.87169 -20.3721
L_Clavicle  -0.591074 3.64926 4.30749
L_UpperArm  -41.5413 -8.26184 69.1851
L_Forearm  -7.83667 37.1394 65.3835
L_Hand  -0.183977 -3.24335 -9.30945
L_Thigh  11.086 21.8714 10.7685
L_Calf  16.1375 -1.55261 11.0035
L_Foot  -7.1861 -23.6773 36.63
L_Toe0  0.46608 0.0357365 -6.17073
R_Thigh  -19.0585 -17.7807 65.3707
R_Calf  -5.73911 6.33674 20.3373
R_Foot  3.75479 15.1062 -25.0976
R_Toe0  -1.78853 -0.272788 -17.3235
171
root  -1.95267 24.0241 -0.410196 -86.3483 29.7716 84.4605
Spine  2.23486 8.60464 26.5505
Spine1  -4.82936 18.0772 -16.6243
Neck  3.97569e-016 0 -2.38542e-015
Head  23.0079 -23.7454 9.49356
R_Clavicle  0.748513 -9.29346 4.88627
R_UpperArm  54.5461 8.28388 56.2186
R_Forearm  2.6197 -44.1571 41.9999
R_Hand  -1.33742 6.55739 -21.5744
L_Clavicle  -0.393221 8.93757 2.26738
L_UpperArm  -41.5016 -14.4189 55.4404
L_Forearm  -9.8162 38.4797 66.1727
L_Hand  -0.204161 -2.5198 -7.7913
L_Thigh  10.8847 25.2016 18.6994
L_Calf  18.3918 -2.69838 19.9432
L_Foot  -6.67956 -23.5767 27.6091
L_Toe0  0.883052 0.0219705 -5.8012
R_Thigh  -20.6563 -16.9973 68.122
R_Calf  -4.30626 6.4614 20.74
R_Foot  3.89985 17.719 -25.8749
R_Toe0  -1.78853 -0.272788 -17.3235
172
root  -0.0790687 24.8879 -0.868304 -76.927 37.0206 91.225
Spine  4.33612 13.8251 28.2224
Spine1  -3.64887 7.84596 -19.3714
Neck  3.97569e-016 0 -2.38542e-015
Head  18.6685 -21.5111 3.63644
R_Clavicle  0.429471 -6.93825 2.17511
R_UpperArm  53.7919 19.289 46.2698
R_Forearm  -1.69575 -44.7818 40.9872
R_Hand  -1.61904 6.712 -23.9338
L_Clavicle  -0.284289 10.6734 -0.328423
L_UpperArm  -40.2758 -24.3176 39.2566
L_Forearm  -10.0463 39.779 65.5939
L_Hand  -0.17595 -2.09976 -5.95747
L_Thigh  6.22097 29.6895 24.5598
L_Calf  20.2744 -4.48912 38.7337
L_Foot  -7.55723 -25.8447 12.7439
L_Toe0  1.9513 -0.0133092 -4.85442
R_Thigh  -19.6684 -17.5153 71.4399
R_Calf  -2.62621 5.81071 18.518
R_Foot  3.9486 18.3646 -25.6779
R_Toe0  -1.78853 -0.272788 -17.3235
173
root  1.77433 25.2134 -1.75548 -66.0232 40.9502 100.969
Spine  4.804 16.5432 30.2851
Spine1  -3.24934 -0.170257 -23.731
Neck  3.97569e-016 0 -2.38542e-015
Head  14.8028 -18.2207 0.217258
R_Clavicle  0.335012 1.25062 1.75046
R_UpperArm  53.0281 27.3792 35.2895
R_Forearm  -2.83029 -42.626 37.8127
R_Hand  -2.01169 6.46392 -27.3853
L_Clavicle  -0.123764 9.74023 -2.66726
L_UpperArm  -38.3357 -32.4466 25.3275
L_Forearm  -11.2818 39.9074 65.5471
L_Hand  -0.14628 -2.31298 -5.28647
L_Thigh  -5.64677 35.5801 27.364
L_Calf  17.204 -5.88073 52.0516
L_Foot  -4.40796 -17.3191 2.97798
L_Toe0  0.38789 0.0383174 -6.24002
R_Thigh  -14.5992 -18.1687 74.8931
R_Calf  -0.156018 3.96415 12.5077
R_Foot  3.98412 17.5427 -23.8119
R_Toe0  -1.78853 -0.272788 -17.3235
174
root  3.48336 24.9585 -3.02707 -56.8249 40.5511 109.881
Spine  2.51992 15.6443 31.9997
Spine1  -3.91045 -5.24556 -27.6904
Neck  3.97569e-016 0 -2.38542e-015
Head  12.2395 -13.5458 -1.68862
R_Clavicle  0.344522 8.51211 1.81041
R_UpperArm  53.7964 36.4586 29.392
R_Forearm  -0.961835 -39.0405 34.2815
R_Hand  -2.37976 6.37047 -30.5979
L_Clavicle  0.110968 6.8996 -3.7552
L_UpperArm  -36.738 -37.1031 15.2651
L_Forearm  -14.6267 39.0788 65.8472
L_Hand  -0.158028 -2.52675 -6.15353
L_Thigh  -4.87223 41.8959 28.4214
L_Calf  2.25584 -7.11979 50.7336
L_Foot  -0.880346 -4.29421 0.692868
L_Toe0  0.505156 0.034446 -6.1361
R_Thigh  -8.98616 -18.0853 77.0249
R_Calf  1.42202 1.0541 3.4245
R_Foot  4.3441 17.6704 -17.2357
R_Toe0  -1.78853 -0.272788 -17.3235
175
root  4.64811 24.0382 -4.5025 -50.4372 37.0125 116.221
Spine  -1.20034 14.3646 31.577
Spine1  -5.80691 -9.41772 -28.8919
Neck  3.97569e-016 0 -2.38542e-015
Head  10.0306 -8.01445 -3.30697
R_Clavicle  0.0431543 13.6731 0.811667
R_UpperArm  57.8486 43.3374 33.6567
R_Forearm  3.14824 -35.9785 31.8039
R_Hand  -2.6647 6.12074 -33.2844
L_Clavicle  0.368255 3.21386 -4.04384
L_UpperArm  -35.5606 -40.3053 8.20104
L_Forearm  -17.8345 38.35 67.6548
L_Hand  -0.0690011 -1.29067 -6.08387
L_Thigh  -2.71324 47.8082 24.6748
L_Calf  -4.75231 -3.59144 42.7767
L_Foot  -0.531882 -3.64954 2.37849
L_Toe0  0.505156 0.034446 -6.1361
R_Thigh  -4.31545 -17.8319 77.3762
R_Calf  0.609855 -2.42437 -7.32524
R_Foot  5.23788 19.3799 -7.64425
R_Toe0  -1.78853 -0.272788 -17.3235
176
root  5.10455 22.7251 -6.1346 -46.3366 32.0347 120.617
Spine  -5.2014 13.9665 29.0359
Spine1  -8.21392 -13.6882 -27.9359
Neck  3.97569e-016 0 -2.38542e-015
Head  8.16377 -2.66342 -4.88479
R_Clavicle  0.0204695 21.1141 1.12024
R_UpperArm  62.4167 41.415 42.7921
R_Forearm  6.87216 -32.917 28.9268
R_Hand  -2.95032 6.25579 -35.6387
L_Clavicle  0.620268 -0.0868882 -4.37016
L_UpperArm  -39.7956 -37.7558 10.7699
L_Forearm  -30.2558 33.3314 55.2917
L_Hand  -0.506626 -8.26495 -10.3519
L_Thigh  2.73259 52.0521 10.8414
L_Calf  -11.8892 -3.44922 37.8755
L_Foot  -1.58493 -7.63921 2.45503
L_Toe0  0.505156 0.034446 -6.1361
R_Thigh  0.68205 -18.0326 75.6608
R_Calf  0.986196 -5.85787 -18.279
R_Foot  6.828 21.9738 2.39407
R_Toe0  -1.78853 -0.272788 -17.3235
177
root  4.96684 21.5201 -8.15279 -45.0726 27.4627 124.006
Spine  -9.54778 12.2335 25.6108
Spine1  -10.1043 -18.3993 -27.3894
Neck  3.97569e-016 0 -2.38542e-015
Head  7.6922 2.48629 -5.61239
R_Clavicle  0.665946 24.6659 2.79308
R_UpperArm  61.1938 34.541 49.5653
R_Forearm  8.57531 -28.4121 24.576
R_Hand  -3.14805 7.04492 -36.4099
L_Clavicle  0.755795 -3.30711 -3.93781
L_UpperArm  -51.8691 -17.4295 27.8943
L_Forearm  -49.3446 6.70267 14.5313
L_Hand  11.0785 -33.983 -39.8353
L_Thigh  -2.9702 50.1429 -11.5993
L_Calf  -16.5422 -3.80684 36.3468
L_Foot  -1.79944 -2.65549 -5.64914
L_Toe0  0.505156 0.034446 -6.1361
R_Thigh  7.05085 -17.8559 71.4993
R_Calf  2.60416 -8.4895 -27.247
R_Foot  9.11467 24.9109 12.1393
R_Toe0  -1.78853 -0.272788 -17.3235
178
root  4.09887 20.3034 -10.0605 -46.7773 23.6968 128.039
Spine  -12.5623 8.52251 21.4565
Spine1  -10.587 -20.2589 -29.477
Neck  3.97569e-016 0 -2.38542e-015
Head  8.84865 7.01814 -4.01623
R_Clavicle  0.387287 22.5083 2.03582
R_UpperArm  56.9172 27.158 58.9242
R_Forearm  9.52413 -23.0455 20.3926
R_Hand  -3.05728 7.45939 -35.268
L_Clavicle  0.604273 -5.46199 -2.41384
L_UpperArm  -50.7612 -6.12115 28.2376
L_Forearm  -35.2542 1.45248 10.8732
L_Hand  21.508 -36.4918 -66.7984
L_Thigh  -10.4606 39.8468 -30.7885
L_Calf  -17.9028 -4.19223 33.6055
L_Foot  -3.20421 3.07745 -18.3188
L_Toe0  0.505156 0.034446 -6.1361
R_Thigh  14.6443 -17.4146 66.1014
R_Calf  -1.36095 -10.0672 -33.0618
R_Foot  10.6453 25.2535 21.9834
R_Toe0  -1.80348 -0.276898 -17.4832
179
root  2.90412 19.07 -11.5976 -49.0458 19.7966 134.164
Spine  -13.1077 4.7546 15.0929
Spine1  -10.1642 -16.3991 -31.4692
Neck  3.97569e-016 0 -2.38542e-015
Head  10.8806 9.88 1.14271
R_Clavicle  -0.705609 19.1559 -1.01968
R_UpperArm  55.1129 17.4057 70.5096
R_Forearm  9.51421 -19.5603 17.1762
R_Hand  -2.833 7.73701 -33.2413
L_Clavicle  0.242423 -4.75381 -0.654804
L_UpperArm  -47.9956 3.32084 28.2381
L_Forearm  -18.8328 4.09591 14.1716
L_Hand  31.153 -37.0265 -86.872
L_Thigh  -11.0292 24.4409 -39.1392
L_Calf  -8.99682 -3.9648 29.7237
L_Foot  -5.12148 -4.47327 -26.0882
L_Toe0  0.505156 0.034446 -6.1361
R_Thigh  24.7424 -16.9957 60.2404
R_Calf  -9.92342 -11.1699 -37.4467
R_Foot  9.53907 21.4493 30.0115
R_Toe0  -1.73046 -0.226307 -16.5993
180
root  1.62882 17.8815 -13.0244 -51.3381 13.6315 142.15
Spine  -11.2917 3.07897 5.38316
Spine1  -9.93529 -8.08127 -28.4688
Neck  3.97569e-016 0 -2.38542e-015
Head  13.1249 10.9882 9.64438
R_Clavicle  -1.25023 16.5912 -2.87221
R_UpperArm  53.7938 8.5982 77.8278
R_Forearm  9.83563 -19.0516 16.6484
R_Hand  -2.53091 8.37994 -30.4768
L_Clavicle  -0.0358369 -1.54425 0.487723
L_UpperArm  -45.2007 11.729 28.7426
L_Forearm  -11.5105 7.70895 17.7322
L_Hand  38.6072 -35.8955 -102.536
L_Thigh  -3.75797 8.79843 -38.5811
L_Calf  8.81045 -3.45454 26.0206
L_Foot  -5.62856 -15.7355 -28.2956
L_Toe0  0.505156 0.034446 -6.1361
R_Thigh  35.6175 -17.2453 52.8331
R_Calf  -18.7917 -12.3541 -42.4568
R_Foot  7.5465 19.7736 23.0861
R_Toe0  -0.432753 -0.179987 -3.54016
